<?xml version="1.0" standalone="no"?>
<!DOCTYPE svg PUBLIC "-//W3C//DTD SVG 20010904//EN"
 "http://www.w3.org/TR/2001/REC-SVG-20010904/DTD/svg10.dtd">
<svg version="1.0" xmlns="http://www.w3.org/2000/svg"
 width="27.000000pt" height="20.000000pt" viewBox="0 0 27.000000 20.000000"
 preserveAspectRatio="xMidYMid meet">

<g transform="translate(0.000000,20.000000) scale(0.100000,-0.100000)"
fill="#000000" stroke="none">
<path d="M4 189 c-3 -6 9 -26 27 -45 l33 -34 -34 -35 c-28 -29 -31 -36 -20
-50 12 -14 18 -11 57 27 23 23 43 47 43 52 0 12 -80 96 -91 96 -5 0 -11 -5
-15 -11z"/>
<path d="M80 20 c0 -19 7 -20 90 -20 83 0 90 1 90 20 0 19 -7 20 -90 20 -83 0
-90 -1 -90 -20z"/>
</g>
</svg>
