<?xml version="1.0" standalone="no"?>
<!DOCTYPE svg PUBLIC "-//W3C//DTD SVG 20010904//EN"
 "http://www.w3.org/TR/2001/REC-SVG-20010904/DTD/svg10.dtd">
<svg version="1.0" xmlns="http://www.w3.org/2000/svg"
 width="180.000000pt" height="180.000000pt" viewBox="0 0 180.000000 180.000000"
 preserveAspectRatio="xMidYMid meet">

<g transform="translate(0.000000,180.000000) scale(0.100000,-0.100000)"
fill="#000000" stroke="none">
<path d="M91 1744 c-68 -77 -84 -110 -79 -164 5 -46 19 -67 212 -325 114 -152
210 -283 213 -291 3 -9 -71 -115 -190 -272 -107 -142 -204 -274 -216 -293 -23
-37 -27 -98 -10 -132 26 -50 84 -117 111 -128 25 -10 33 -9 56 8 15 11 151
185 303 386 291 385 298 398 275 468 -10 29 -493 683 -559 757 -32 35 -78 30
-116 -14z"/>
<path d="M580 339 c-45 -17 -60 -56 -60 -162 0 -88 2 -98 26 -126 l26 -31 583
0 583 0 27 32 c26 30 27 35 23 135 -3 97 -5 104 -31 130 l-27 28 -563 2 c-334
1 -572 -2 -587 -8z"/>
</g>
</svg>
